<svg width="356" height="297" viewBox="0 0 356 297" fill="none" xmlns="http://www.w3.org/2000/svg">
<path d="M156 293.998C114.626 293.998 74.947 278.616 45.6913 251.235C16.4357 223.855 -1.15094e-06 186.72 0 147.998C1.15094e-06 109.276 16.4357 72.1406 45.6913 44.7603C74.947 17.38 114.626 1.9979 156 1.9979L156 147.998L156 293.998Z" fill="#1B2E47"/>
<path d="M197.955 51.108L155.383 82.4856L155.228 19.941L197.955 51.108Z" fill="#1B2E47"/>
<path d="M197.955 150.109L155.383 181.486L155.228 118.942L197.955 150.109Z" fill="#1B2E47"/>
<path d="M197.955 240.107L155.383 271.485L155.228 208.94L197.955 240.107Z" fill="#1B2E47"/>
<path d="M199.92 2.10174C241.29 2.65916 280.758 18.5744 309.643 46.3464C338.527 74.1184 354.46 111.472 353.939 150.19C353.417 188.908 336.483 225.819 306.861 252.803C277.239 279.787 237.356 294.633 195.986 294.075L197.953 148.088L199.92 2.10174Z" fill="#B6C5D3"/>
<path d="M244.405 55.767L199.743 24.0012L199.055 86.5422L244.405 55.767Z" fill="white"/>
<path d="M243.405 147.766L198.743 116L198.055 178.541L243.405 147.766Z" fill="white"/>
<path d="M242.405 243.768L197.743 212.003L197.055 274.544L242.405 243.768Z" fill="white"/>
<rect x="82.3397" y="81.0171" width="240.816" height="72.0233" transform="rotate(15.454 82.3397 81.0171)" fill="#1B2E47" fill-opacity="0.39"/>
<path d="M82.4823 123.237C82.328 123.194 82.2177 123.143 82.1513 123.083C82.0813 123.036 82.0569 122.974 82.0782 122.897C82.1209 122.742 82.3842 122.691 82.8681 122.742C83.3685 122.783 83.7692 122.735 84.0702 122.597C84.3748 122.446 84.6635 122.152 84.9363 121.716L89.9947 113.776C90.2604 113.366 90.3539 113.053 90.2751 112.837C90.2127 112.612 89.9819 112.396 89.5827 112.189C89.4006 112.097 89.2863 112.01 89.2398 111.928C89.1933 111.846 89.1825 111.76 89.2074 111.67C89.2287 111.593 89.3007 111.558 89.4235 111.564C89.5627 111.561 89.7094 111.581 89.8636 111.624C90.1849 111.712 90.4401 111.79 90.6293 111.856C90.8349 111.913 91.0195 111.971 91.183 112.03C91.3629 112.08 91.5814 112.14 91.8384 112.211C92.0698 112.275 92.2497 112.325 92.3782 112.36C92.5231 112.387 92.6791 112.423 92.8462 112.469C93.0296 112.506 93.282 112.569 93.6033 112.658C93.9117 112.743 94.0464 112.856 94.0073 112.997C93.9825 113.087 93.8969 113.147 93.7506 113.176C93.6043 113.204 93.4166 113.208 93.1875 113.186C92.8648 113.152 92.6076 113.157 92.4156 113.201C92.2272 113.232 92.0632 113.325 91.9235 113.48C91.7874 113.622 91.6199 113.852 91.4212 114.171L89.3238 117.554C89.2732 117.637 89.2619 117.703 89.2898 117.752C89.3177 117.802 89.3766 117.839 89.4665 117.863C89.6593 117.917 89.8763 117.908 90.1174 117.836C90.3621 117.751 90.6432 117.635 90.9606 117.488L95.998 115.104C96.2041 115.009 96.381 114.919 96.5286 114.836C96.6798 114.739 96.7696 114.64 96.7981 114.537C96.8087 114.498 96.7954 114.446 96.7583 114.381C96.7339 114.318 96.6517 114.24 96.5117 114.146C96.3846 114.056 96.2831 113.972 96.2074 113.896C96.148 113.811 96.1308 113.723 96.1557 113.633C96.177 113.556 96.2683 113.526 96.4296 113.543C96.5945 113.547 96.754 113.57 96.9083 113.613L97.8721 113.879C98.3862 114.021 98.9166 114.154 99.4635 114.278C100.023 114.405 100.477 114.516 100.824 114.612C101.042 114.673 101.132 114.773 101.093 114.915C101.068 115.005 100.982 115.064 100.836 115.093C100.69 115.122 100.502 115.125 100.273 115.103C99.7724 115.062 99.2257 115.063 98.6327 115.106C98.0525 115.153 97.4474 115.29 96.8175 115.517C96.1547 115.763 95.5305 116.019 94.9449 116.286C94.3628 116.54 93.7672 116.818 93.158 117.12C92.5489 117.422 91.8759 117.755 91.1391 118.118C91.0735 118.156 91.0318 118.206 91.014 118.271C90.9998 118.322 91.0031 118.385 91.0239 118.46C91.4055 120.032 91.7654 121.307 92.1034 122.286C92.4415 123.265 92.7733 124.041 93.0987 124.615C93.3161 124.98 93.5438 125.257 93.7817 125.447C94.036 125.628 94.3113 125.808 94.6078 125.987C94.7992 126.095 94.9135 126.182 94.9507 126.248C95.0043 126.304 95.0186 126.377 94.9937 126.467C94.9724 126.544 94.9004 126.58 94.7776 126.574C94.6513 126.58 94.511 126.562 94.3568 126.519C94.0098 126.424 93.7178 126.329 93.4807 126.236C93.2401 126.155 92.9609 126.064 92.6432 125.963C92.3383 125.865 91.8903 125.734 91.2992 125.57C91.1578 125.531 91.0357 125.498 90.9329 125.469C90.8429 125.444 90.7337 125.414 90.6052 125.379C90.4731 125.356 90.2722 125.307 90.0023 125.233C89.8481 125.19 89.736 125.145 89.666 125.098C89.6124 125.042 89.5962 124.975 89.6175 124.898C89.6424 124.808 89.7116 124.758 89.825 124.748C89.9421 124.725 90.0959 124.719 90.2864 124.73C90.5612 124.737 90.7507 124.727 90.8549 124.701C90.9719 124.678 91.0318 124.611 91.0345 124.501C91.0372 124.391 91.0027 124.216 90.9311 123.975L89.4794 118.718C89.4471 118.584 89.3609 118.471 89.2209 118.377C89.0809 118.283 88.9852 118.228 88.9338 118.214C88.8824 118.2 88.8297 118.241 88.7755 118.336C88.725 118.419 88.6762 118.496 88.6291 118.566L86.565 121.979C86.258 122.489 86.1368 122.877 86.2013 123.144C86.2659 123.411 86.4978 123.648 86.897 123.855C87.0791 123.947 87.1952 124.028 87.2452 124.097C87.2953 124.166 87.3079 124.246 87.283 124.336C87.2617 124.413 87.1896 124.448 87.0669 124.442C86.9405 124.448 86.8003 124.43 86.6461 124.388C86.3248 124.299 86.0777 124.217 85.9049 124.141C85.7321 124.066 85.5639 123.999 85.4004 123.94C85.2533 123.871 85.0577 123.803 84.8135 123.736C84.3766 123.615 83.9985 123.531 83.6795 123.485C83.3697 123.454 82.9706 123.372 82.4823 123.237ZM95.1321 126.734C94.9779 126.691 94.874 126.642 94.8204 126.585C94.7668 126.529 94.7396 126.452 94.7387 126.355C94.7543 126.249 94.8335 126.188 94.9762 126.172C95.1096 126.14 95.2862 126.126 95.5061 126.132C95.8943 126.128 96.2558 126.097 96.5905 126.037C96.938 125.981 97.2669 125.892 97.5772 125.771C97.8911 125.636 98.1828 125.481 98.4524 125.307C99.6947 124.516 100.843 123.741 101.897 122.981C102.964 122.224 103.996 121.465 104.995 120.704C105.994 119.943 107.016 119.174 108.061 118.397C108.268 118.247 108.451 118.111 108.61 117.989C108.768 117.867 108.898 117.771 109 117.703C109.102 117.634 109.179 117.607 109.23 117.621C109.5 117.696 109.692 117.7 109.807 117.635C109.935 117.574 110.099 117.481 110.299 117.356C110.536 117.2 110.695 117.099 110.777 117.053C110.876 116.997 110.957 116.978 111.021 116.996C111.086 117.013 111.12 117.064 111.124 117.149C111.129 117.233 111.07 117.396 110.947 117.639L106.161 127.147C105.862 127.729 105.726 128.169 105.754 128.467C105.799 128.756 105.987 129.002 106.318 129.204C106.51 129.312 106.65 129.406 106.738 129.486C106.831 129.553 106.864 129.631 106.839 129.721C106.818 129.799 106.757 129.844 106.656 129.858C106.556 129.871 106.396 129.848 106.178 129.788C106.011 129.741 105.796 129.668 105.533 129.568C105.28 129.484 105.009 129.388 104.72 129.281C104.428 129.186 104.147 129.102 103.877 129.027C103.646 128.963 103.408 128.897 103.164 128.83C102.933 128.766 102.706 128.71 102.484 128.663C102.278 128.606 102.105 128.558 101.964 128.519C101.694 128.444 101.561 128.324 101.565 128.159C101.577 128.066 101.643 128.001 101.764 127.965C101.888 127.917 102.037 127.903 102.211 127.923C102.657 127.963 103.007 127.97 103.264 127.944C103.536 127.909 103.763 127.813 103.945 127.656C104.143 127.489 104.337 127.238 104.527 126.903L105.758 124.775C105.863 124.596 105.862 124.45 105.755 124.338C105.66 124.229 105.523 124.149 105.343 124.099L103.174 123.541C102.968 123.484 102.794 123.464 102.651 123.48C102.525 123.486 102.391 123.546 102.249 123.659L99.5384 125.732C99.2219 125.976 99.0258 126.185 98.9504 126.358C98.8914 126.521 98.9008 126.662 98.9787 126.781C99.0731 126.89 99.1838 126.989 99.311 127.08C99.4381 127.17 99.5378 127.26 99.61 127.349C99.6822 127.438 99.7041 127.534 99.6757 127.637C99.6508 127.727 99.5816 127.777 99.4682 127.787C99.3547 127.797 99.2209 127.781 99.0666 127.739C98.8996 127.692 98.6893 127.627 98.4358 127.543C98.1952 127.463 97.9078 127.377 97.5737 127.284C97.1753 127.174 96.7395 127.074 96.2662 126.985C95.8057 126.899 95.4277 126.816 95.1321 126.734ZM103.837 123.019L105.905 123.57C106.046 123.609 106.166 123.601 106.264 123.545C106.363 123.489 106.466 123.365 106.574 123.174L108.667 119.208C108.748 119.065 108.791 118.959 108.796 118.891C108.817 118.814 108.796 118.767 108.732 118.749C108.68 118.735 108.619 118.732 108.547 118.739C108.476 118.747 108.394 118.794 108.301 118.879L103.607 122.499C103.481 122.603 103.402 122.691 103.367 122.765C103.333 122.838 103.49 122.923 103.837 123.019ZM107.82 130.242C107.666 130.199 107.562 130.149 107.509 130.093C107.455 130.037 107.428 129.96 107.427 129.863C107.442 129.757 107.522 129.696 107.664 129.68C107.798 129.647 107.974 129.634 108.194 129.639C108.582 129.636 108.944 129.605 109.279 129.545C109.626 129.489 109.955 129.4 110.265 129.278C110.579 129.144 110.871 128.989 111.14 128.815C112.383 128.024 113.531 127.248 114.585 126.488C115.652 125.732 116.685 124.973 117.684 124.212C118.683 123.45 119.704 122.682 120.749 121.905C120.957 121.755 121.139 121.619 121.298 121.497C121.456 121.374 121.586 121.279 121.688 121.21C121.79 121.142 121.867 121.115 121.918 121.129C122.188 121.203 122.38 121.208 122.495 121.143C122.623 121.081 122.787 120.988 122.987 120.864C123.224 120.708 123.384 120.607 123.466 120.56C123.564 120.505 123.645 120.486 123.71 120.503C123.774 120.521 123.808 120.572 123.813 120.656C123.817 120.741 123.758 120.904 123.635 121.147L118.849 130.655C118.55 131.237 118.414 131.676 118.442 131.975C118.487 132.264 118.675 132.509 119.006 132.712C119.198 132.82 119.338 132.914 119.426 132.994C119.519 133.061 119.552 133.139 119.527 133.229C119.506 133.306 119.445 133.352 119.345 133.365C119.244 133.379 119.084 133.356 118.866 133.295C118.699 133.249 118.484 133.176 118.221 133.076C117.968 132.992 117.697 132.896 117.408 132.789C117.116 132.694 116.835 132.609 116.565 132.535C116.334 132.471 116.096 132.405 115.852 132.338C115.621 132.274 115.394 132.218 115.172 132.17C114.966 132.113 114.793 132.066 114.652 132.026C114.382 131.952 114.249 131.832 114.253 131.667C114.265 131.574 114.331 131.509 114.452 131.473C114.576 131.425 114.725 131.41 114.899 131.431C115.345 131.471 115.695 131.478 115.952 131.452C116.224 131.417 116.451 131.321 116.633 131.163C116.831 130.997 117.025 130.746 117.215 130.411L118.447 128.282C118.551 128.104 118.55 127.958 118.443 127.845C118.348 127.736 118.211 127.657 118.031 127.607L115.862 127.049C115.656 126.992 115.482 126.972 115.339 126.987C115.213 126.994 115.079 127.054 114.937 127.167L112.227 129.239C111.91 129.484 111.714 129.693 111.639 129.865C111.579 130.029 111.589 130.17 111.667 130.288C111.761 130.397 111.872 130.497 111.999 130.588C112.126 130.678 112.226 130.768 112.298 130.857C112.37 130.946 112.392 131.042 112.364 131.145C112.339 131.235 112.27 131.285 112.156 131.295C112.043 131.305 111.909 131.289 111.755 131.246C111.588 131.2 111.377 131.135 111.124 131.051C110.883 130.971 110.596 130.884 110.262 130.792C109.863 130.682 109.428 130.582 108.954 130.493C108.494 130.407 108.116 130.323 107.82 130.242ZM116.525 126.527L118.593 127.078C118.734 127.117 118.854 127.108 118.952 127.053C119.051 126.997 119.154 126.873 119.262 126.682L121.355 122.716C121.436 122.572 121.479 122.467 121.484 122.399C121.505 122.322 121.484 122.274 121.42 122.257C121.368 122.242 121.307 122.239 121.235 122.247C121.164 122.255 121.082 122.302 120.989 122.387L116.295 126.007C116.17 126.11 116.09 126.199 116.056 126.273C116.021 126.346 116.178 126.431 116.525 126.527ZM124.657 135.104C124.336 135.015 124.017 134.892 123.701 134.736C123.381 134.592 123.072 134.41 122.773 134.189C122.624 134.078 122.497 133.988 122.392 133.917C122.303 133.837 122.24 133.792 122.201 133.782C122.137 133.764 122.062 133.757 121.978 133.761C121.907 133.769 121.836 133.777 121.764 133.785C121.673 133.815 121.59 133.841 121.515 133.862C121.44 133.882 121.377 133.886 121.325 133.871C121.274 133.857 121.214 133.799 121.145 133.697C121.067 133.579 121.039 133.481 121.06 133.404C121.082 133.327 121.187 133.169 121.378 132.931C121.568 132.694 121.791 132.388 122.046 132.016C122.317 131.635 122.554 131.202 122.757 130.719C122.867 130.473 123.005 130.373 123.172 130.419C123.275 130.447 123.321 130.529 123.312 130.665C123.305 130.788 123.267 130.977 123.196 131.234C123.061 131.723 123.013 132.194 123.054 132.648C123.111 133.092 123.274 133.477 123.545 133.8C123.828 134.127 124.233 134.364 124.759 134.51C125.582 134.737 126.34 134.698 127.033 134.391C127.743 134.076 128.217 133.487 128.455 132.626C128.547 132.292 128.581 131.969 128.557 131.658C128.545 131.351 128.464 131.017 128.314 130.658C128.168 130.285 127.943 129.849 127.638 129.35C127.224 128.696 126.893 128.044 126.644 127.394C126.407 126.748 126.39 126.059 126.593 125.326C126.781 124.645 127.122 124.089 127.614 123.658C128.12 123.231 128.715 122.953 129.401 122.824C130.103 122.686 130.833 122.722 131.592 122.932C131.797 122.988 132.009 123.074 132.226 123.19C132.446 123.292 132.657 123.406 132.858 123.531C133.093 123.679 133.284 123.814 133.43 123.938C133.592 124.052 133.718 124.121 133.808 124.146C133.949 124.185 134.08 124.187 134.201 124.151C134.26 124.139 134.316 124.134 134.371 124.136C134.43 124.124 134.491 124.127 134.555 124.145C134.658 124.174 134.712 124.23 134.716 124.314C134.721 124.398 134.716 124.466 134.701 124.518C134.698 124.53 134.63 124.601 134.497 124.731C134.381 124.851 134.215 125.075 134 125.403C133.801 125.721 133.558 126.2 133.271 126.84C133.192 127.026 133.098 127.166 132.989 127.26C132.896 127.345 132.83 127.383 132.792 127.372C132.702 127.347 132.65 127.284 132.636 127.184C132.639 127.074 132.66 126.948 132.699 126.807C132.948 125.907 132.93 125.169 132.647 124.593C132.367 124.004 131.887 123.615 131.206 123.427C130.756 123.302 130.305 123.309 129.851 123.446C129.411 123.588 129.029 123.821 128.704 124.146C128.382 124.458 128.165 124.82 128.051 125.231C127.958 125.565 127.926 125.909 127.953 126.262C127.983 126.603 128.08 126.975 128.245 127.381C128.426 127.777 128.678 128.241 129.002 128.773C129.494 129.545 129.833 130.22 130.019 130.797C130.218 131.378 130.243 131.938 130.094 132.478C129.898 133.184 129.554 133.781 129.06 134.267C128.566 134.753 127.943 135.078 127.192 135.244C126.453 135.414 125.608 135.367 124.657 135.104ZM133.034 137.212C132.88 137.17 132.77 137.118 132.703 137.059C132.633 137.012 132.609 136.949 132.63 136.872C132.655 136.782 132.737 136.736 132.876 136.733C133.016 136.73 133.2 136.739 133.429 136.761C133.929 136.803 134.366 136.75 134.738 136.604C135.127 136.449 135.449 136.158 135.706 135.731L140.339 128.13C140.7 127.525 140.896 127.115 140.927 126.903C140.962 126.677 140.895 126.541 140.728 126.495L139.128 126.053C138.499 125.879 137.975 125.872 137.557 126.033C137.155 126.185 136.8 126.37 136.49 126.589C136.339 126.686 136.191 126.797 136.045 126.923C135.916 127.039 135.792 127.136 135.674 127.214C135.568 127.296 135.477 127.326 135.4 127.304C135.323 127.283 135.269 127.254 135.237 127.218C135.222 127.172 135.229 127.098 135.257 126.995C135.264 126.97 135.295 126.909 135.349 126.813C135.403 126.717 135.492 126.597 135.615 126.451C135.815 126.229 136.038 125.973 136.284 125.681C136.544 125.393 136.765 125.095 136.947 124.786C136.998 124.703 137.066 124.632 137.151 124.572C137.253 124.504 137.33 124.476 137.381 124.491C137.433 124.505 137.484 124.547 137.534 124.616C137.587 124.672 137.631 124.739 137.664 124.818C137.692 124.867 137.74 124.922 137.806 124.982C137.872 125.041 137.998 125.111 138.184 125.19C138.373 125.256 138.667 125.344 139.066 125.454L145.947 127.357C146.346 127.467 146.645 127.536 146.845 127.563C147.058 127.595 147.214 127.603 147.315 127.59C147.415 127.576 147.49 127.555 147.54 127.527C147.622 127.481 147.694 127.445 147.756 127.421C147.818 127.397 147.874 127.392 147.926 127.406C148.054 127.441 148.099 127.53 148.06 127.671C148.035 127.761 147.983 127.85 147.903 127.939C147.836 128.031 147.774 128.104 147.718 128.158C147.618 128.268 147.439 128.516 147.18 128.901C146.925 129.273 146.674 129.709 146.425 130.207C146.384 130.306 146.339 130.37 146.289 130.398C146.24 130.426 146.19 130.433 146.139 130.418C146.049 130.394 145.989 130.335 145.958 130.244C145.945 130.144 145.956 130.029 145.991 129.9C146.155 129.309 146.183 128.833 146.075 128.471C145.98 128.113 145.689 127.866 145.201 127.731L143.273 127.198C143.106 127.152 142.954 127.152 142.817 127.197C142.693 127.246 142.546 127.378 142.375 127.594C142.221 127.8 142.006 128.128 141.73 128.577L137.132 136.125C136.876 136.552 136.797 136.911 136.897 137.201C137.013 137.482 137.271 137.726 137.67 137.934C137.852 138.025 137.97 138.099 138.023 138.156C138.077 138.212 138.091 138.285 138.066 138.375C138.045 138.452 137.973 138.488 137.85 138.481C137.724 138.488 137.584 138.47 137.43 138.427C137.108 138.339 136.848 138.253 136.65 138.17C136.448 138.101 136.252 138.033 136.063 137.967C135.887 137.904 135.663 137.835 135.394 137.761C135.098 137.679 134.833 137.613 134.598 137.562C134.363 137.51 134.122 137.458 133.874 137.403C133.636 137.365 133.356 137.301 133.034 137.212ZM142.038 139.701C141.884 139.659 141.774 139.608 141.707 139.548C141.637 139.501 141.613 139.439 141.634 139.361C141.677 139.207 141.94 139.156 142.424 139.206C143.095 139.281 143.594 139.253 143.921 139.122C144.264 138.982 144.56 138.711 144.809 138.31L149.848 130.365C150.181 129.862 150.287 129.504 150.166 129.291C150.049 129.065 149.718 128.835 149.174 128.602C148.988 128.523 148.864 128.447 148.801 128.374C148.751 128.305 148.738 128.225 148.763 128.135C148.785 128.058 148.857 128.023 148.979 128.029C149.118 128.026 149.265 128.046 149.419 128.088C149.522 128.117 149.7 128.173 149.954 128.257C150.22 128.344 150.512 128.439 150.83 128.541C151.164 128.633 151.466 128.717 151.736 128.791L154.839 129.649C155.546 129.845 156.083 129.979 156.45 130.053C156.833 130.117 157.099 130.156 157.248 130.17C157.413 130.174 157.508 130.179 157.534 130.186C157.585 130.201 157.621 130.245 157.642 130.32C157.679 130.386 157.691 130.444 157.676 130.496C157.655 130.573 157.578 130.704 157.444 130.888C157.313 131.059 157.162 131.28 156.99 131.551C156.819 131.822 156.656 132.136 156.501 132.495C156.453 132.62 156.381 132.704 156.286 132.747C156.208 132.78 156.137 132.788 156.072 132.77C156.008 132.753 155.963 132.692 155.936 132.588C155.922 132.487 155.942 132.368 155.994 132.23C156.196 131.649 156.256 131.23 156.175 130.973C156.098 130.702 155.802 130.496 155.288 130.354L152.936 129.704C152.628 129.619 152.397 129.603 152.243 129.658C152.094 129.699 151.956 129.82 151.832 130.021L149.41 133.751C149.269 133.961 149.206 134.116 149.219 134.217C149.233 134.317 149.344 134.39 149.553 134.434L151.96 135.037C152.298 135.116 152.58 135.118 152.809 135.043C153.053 134.959 153.28 134.841 153.487 134.691C153.605 134.613 153.736 134.518 153.878 134.405C154.036 134.282 154.173 134.237 154.288 134.269C154.391 134.298 154.427 134.37 154.395 134.485C154.379 134.592 154.32 134.707 154.216 134.83C154.04 135.017 153.881 135.194 153.737 135.362C153.607 135.533 153.485 135.7 153.371 135.862C153.237 136.047 153.106 136.246 152.978 136.459C152.866 136.663 152.739 136.898 152.596 137.163C152.558 137.249 152.501 137.331 152.425 137.406C152.362 137.486 152.298 137.516 152.234 137.499C152.131 137.47 152.08 137.38 152.08 137.228C152.094 137.079 152.109 136.973 152.127 136.909C152.237 136.51 152.243 136.215 152.144 136.021C152.062 135.819 151.911 135.687 151.693 135.627L149.487 134.975C149.268 134.915 149.067 134.894 148.882 134.912C148.713 134.921 148.551 135.056 148.396 135.317L146.443 138.554C146.082 139.159 145.924 139.579 145.97 139.813C146.029 140.051 146.258 140.225 146.656 140.335L149.644 141.161C149.965 141.25 150.262 141.277 150.535 141.241C150.82 141.209 151.086 141.151 151.33 141.067C151.562 140.979 151.788 140.861 152.009 140.715C152.232 140.555 152.465 140.364 152.707 140.14C152.78 140.077 152.852 140.014 152.925 139.951C152.998 139.889 153.073 139.868 153.15 139.889C153.214 139.907 153.24 139.963 153.228 140.056C153.216 140.15 153.199 140.235 153.178 140.312C153.146 140.428 153.051 140.595 152.894 140.814C152.737 141.034 152.564 141.256 152.378 141.481C152.195 141.693 152.037 141.864 151.904 141.993C151.791 142.1 151.673 142.178 151.549 142.227C151.441 142.266 151.31 142.265 151.156 142.222C150.629 142.077 150.11 141.926 149.6 141.771C149.099 141.633 148.612 141.491 148.14 141.347C147.668 141.203 147.216 141.064 146.782 140.93C146.349 140.796 145.927 140.673 145.515 140.559C145.12 140.436 144.743 140.325 144.383 140.225C144.075 140.14 143.803 140.072 143.568 140.021C143.33 139.982 143.093 139.938 142.858 139.887C142.633 139.852 142.359 139.79 142.038 139.701ZM153.145 142.772C152.991 142.729 152.88 142.678 152.814 142.618C152.744 142.571 152.72 142.509 152.741 142.432C152.783 142.278 153.047 142.226 153.531 142.277C154.202 142.352 154.701 142.324 155.027 142.193C155.37 142.052 155.667 141.782 155.916 141.38L160.955 133.436C161.288 132.933 161.394 132.575 161.273 132.361C161.155 132.135 160.825 131.906 160.281 131.672C160.095 131.593 159.971 131.517 159.908 131.445C159.858 131.375 159.845 131.296 159.87 131.206C159.891 131.129 159.963 131.093 160.086 131.1C160.225 131.097 160.372 131.116 160.526 131.159C160.629 131.187 160.807 131.244 161.061 131.328C161.327 131.415 161.619 131.51 161.937 131.611C162.271 131.704 162.573 131.787 162.843 131.862L165.946 132.72C166.653 132.915 167.19 133.05 167.557 133.123C167.94 133.188 168.206 133.227 168.355 133.24C168.52 133.244 168.615 133.25 168.641 133.257C168.692 133.271 168.728 133.316 168.749 133.391C168.786 133.456 168.798 133.515 168.783 133.566C168.762 133.643 168.684 133.774 168.55 133.958C168.42 134.13 168.269 134.351 168.097 134.622C167.926 134.892 167.763 135.207 167.608 135.565C167.56 135.69 167.488 135.774 167.393 135.817C167.315 135.851 167.243 135.859 167.179 135.841C167.115 135.823 167.069 135.762 167.043 135.658C167.029 135.558 167.048 135.438 167.1 135.301C167.302 134.72 167.363 134.301 167.282 134.043C167.204 133.773 166.909 133.567 166.395 133.425L164.043 132.775C163.734 132.689 163.504 132.674 163.35 132.728C163.2 132.77 163.063 132.891 162.938 133.092L160.517 136.821C160.376 137.031 160.312 137.187 160.326 137.287C160.34 137.388 160.451 137.46 160.66 137.504L163.067 138.107C163.404 138.187 163.687 138.189 163.916 138.114C164.16 138.029 164.386 137.912 164.594 137.762C164.712 137.684 164.842 137.588 164.984 137.475C165.143 137.353 165.28 137.308 165.395 137.34C165.498 137.368 165.533 137.44 165.502 137.556C165.486 137.662 165.426 137.777 165.323 137.901C165.147 138.087 164.987 138.265 164.844 138.433C164.714 138.604 164.592 138.771 164.478 138.933C164.344 139.117 164.213 139.316 164.084 139.53C163.973 139.734 163.845 139.969 163.703 140.234C163.665 140.32 163.608 140.401 163.532 140.477C163.469 140.556 163.405 140.587 163.34 140.569C163.238 140.541 163.187 140.451 163.187 140.298C163.2 140.15 163.216 140.044 163.234 139.979C163.344 139.581 163.35 139.285 163.251 139.092C163.169 138.889 163.018 138.758 162.8 138.697L160.594 138.046C160.375 137.986 160.173 137.964 159.989 137.982C159.82 137.991 159.658 138.126 159.503 138.388L157.55 141.624C157.189 142.23 157.031 142.65 157.077 142.884C157.136 143.122 157.365 143.295 157.763 143.406L160.751 144.232C161.072 144.32 161.369 144.347 161.642 144.312C161.927 144.28 162.192 144.222 162.437 144.137C162.669 144.049 162.895 143.932 163.115 143.785C163.339 143.626 163.572 143.434 163.814 143.211C163.886 143.148 163.959 143.085 164.032 143.022C164.105 142.959 164.18 142.938 164.257 142.96C164.321 142.977 164.347 143.033 164.335 143.127C164.323 143.22 164.306 143.305 164.285 143.383C164.253 143.498 164.158 143.666 164.001 143.885C163.843 144.104 163.671 144.326 163.485 144.552C163.301 144.764 163.143 144.934 163.011 145.064C162.898 145.171 162.78 145.249 162.656 145.298C162.548 145.337 162.417 145.335 162.263 145.293C161.736 145.147 161.217 144.997 160.707 144.842C160.206 144.703 159.719 144.562 159.247 144.418C158.775 144.273 158.322 144.134 157.889 144.001C157.456 143.867 157.033 143.743 156.622 143.63C156.227 143.507 155.85 143.395 155.49 143.296C155.182 143.211 154.91 143.142 154.675 143.091C154.437 143.053 154.2 143.008 153.965 142.957C153.74 142.923 153.466 142.861 153.145 142.772ZM164.483 145.907C164.329 145.864 164.218 145.813 164.152 145.753C164.082 145.706 164.058 145.644 164.079 145.567C164.122 145.412 164.385 145.361 164.869 145.411C165.369 145.453 165.841 145.424 166.283 145.325C166.729 145.213 167.078 144.95 167.331 144.536L172.506 136.401C172.775 135.977 172.875 135.693 172.804 135.549C172.749 135.396 172.522 135.216 172.123 135.008C171.941 134.917 171.827 134.83 171.78 134.748C171.734 134.666 171.723 134.58 171.748 134.49C171.769 134.413 171.841 134.377 171.964 134.383C172.09 134.377 172.231 134.395 172.385 134.437C172.706 134.526 172.961 134.604 173.151 134.67C173.353 134.74 173.54 134.812 173.713 134.888C173.889 134.95 174.106 135.017 174.363 135.088C174.659 135.17 174.924 135.236 175.159 135.287C175.397 135.326 175.64 135.372 175.888 135.427C176.136 135.481 176.42 135.553 176.741 135.642C177.037 135.724 177.165 135.835 177.126 135.976C177.098 136.079 177.006 136.137 176.85 136.149C176.698 136.149 176.509 136.131 176.284 136.096C175.942 136.03 175.625 136.004 175.33 136.019C175.051 136.025 174.801 136.081 174.578 136.185C174.359 136.277 174.176 136.44 174.028 136.676L169.006 144.708C168.729 145.158 168.602 145.544 168.623 145.868C168.648 146.179 168.898 146.401 169.373 146.532L170.915 146.959C171.622 147.154 172.207 147.24 172.67 147.215C173.15 147.182 173.545 147.077 173.857 146.9C174.169 146.724 174.442 146.536 174.676 146.338C174.911 146.14 175.172 145.922 175.459 145.683C175.545 145.624 175.604 145.585 175.637 145.566C175.683 145.551 175.744 145.554 175.821 145.576C175.885 145.594 175.919 145.624 175.921 145.666C175.936 145.711 175.933 145.773 175.911 145.85C175.886 145.94 175.804 146.09 175.662 146.3C175.534 146.513 175.378 146.754 175.193 147.021C175.012 147.275 174.829 147.515 174.642 147.74C174.468 147.968 174.316 148.141 174.187 148.257C174.115 148.32 174.031 148.373 173.936 148.416C173.841 148.459 173.749 148.468 173.659 148.443C172.926 148.241 172.247 148.046 171.621 147.859C171.007 147.676 170.426 147.501 169.877 147.336C169.328 147.17 168.811 147.013 168.326 146.865C167.842 146.718 167.374 146.581 166.925 146.457C166.449 146.326 166.045 146.235 165.713 146.184C165.381 146.134 164.971 146.042 164.483 145.907ZM178.81 149.867C178.655 149.825 178.552 149.775 178.498 149.719C178.444 149.663 178.417 149.586 178.416 149.489C178.432 149.382 178.511 149.321 178.654 149.305C178.787 149.273 178.964 149.26 179.184 149.265C179.572 149.262 179.933 149.23 180.268 149.171C180.616 149.115 180.944 149.026 181.255 148.904C181.569 148.769 181.86 148.615 182.13 148.44C183.372 147.65 184.52 146.874 185.574 146.114C186.641 145.358 187.674 144.599 188.673 143.838C189.672 143.076 190.694 142.307 191.738 141.531C191.946 141.381 192.129 141.245 192.287 141.122C192.445 141 192.576 140.905 192.678 140.836C192.78 140.767 192.856 140.74 192.908 140.754C193.177 140.829 193.37 140.834 193.485 140.769C193.612 140.707 193.776 140.614 193.977 140.49C194.214 140.334 194.373 140.233 194.455 140.186C194.553 140.13 194.635 140.111 194.699 140.129C194.763 140.147 194.798 140.198 194.802 140.282C194.806 140.366 194.747 140.53 194.625 140.773L189.838 150.281C189.539 150.862 189.404 151.302 189.432 151.6C189.476 151.889 189.665 152.135 189.996 152.337C190.187 152.446 190.327 152.54 190.416 152.619C190.508 152.686 190.542 152.765 190.517 152.855C190.496 152.932 190.435 152.977 190.334 152.991C190.233 153.005 190.074 152.981 189.855 152.921C189.688 152.875 189.473 152.802 189.211 152.701C188.957 152.617 188.686 152.522 188.398 152.414C188.106 152.32 187.825 152.235 187.555 152.16C187.323 152.097 187.086 152.031 186.842 151.963C186.61 151.899 186.384 151.844 186.162 151.796C185.956 151.739 185.782 151.691 185.641 151.652C185.371 151.578 185.238 151.458 185.242 151.293C185.254 151.199 185.321 151.135 185.441 151.099C185.565 151.05 185.715 151.036 185.889 151.057C186.334 151.097 186.685 151.104 186.941 151.078C187.214 151.043 187.441 150.946 187.623 150.789C187.821 150.622 188.015 150.372 188.204 150.037L189.436 147.908C189.541 147.729 189.539 147.584 189.432 147.471C189.338 147.362 189.201 147.283 189.021 147.233L186.851 146.675C186.646 146.618 186.471 146.597 186.329 146.613C186.202 146.62 186.068 146.68 185.926 146.792L183.216 148.865C182.899 149.11 182.703 149.318 182.628 149.491C182.569 149.655 182.578 149.796 182.656 149.914C182.751 150.023 182.861 150.123 182.989 150.213C183.116 150.304 183.215 150.394 183.288 150.483C183.36 150.572 183.382 150.668 183.353 150.771C183.328 150.861 183.259 150.911 183.146 150.921C183.032 150.931 182.898 150.915 182.744 150.872C182.577 150.826 182.367 150.761 182.113 150.677C181.873 150.597 181.585 150.51 181.251 150.418C180.853 150.308 180.417 150.208 179.944 150.119C179.483 150.033 179.105 149.949 178.81 149.867ZM187.514 146.152L189.582 146.703C189.724 146.743 189.843 146.734 189.942 146.678C190.04 146.623 190.144 146.499 190.252 146.308L192.344 142.342C192.425 142.198 192.469 142.092 192.473 142.025C192.495 141.948 192.473 141.9 192.409 141.882C192.358 141.868 192.296 141.865 192.225 141.873C192.154 141.881 192.072 141.927 191.979 142.012L187.285 145.632C187.159 145.736 187.079 145.825 187.045 145.898C187.011 145.972 187.167 146.057 187.514 146.152ZM194.885 154.498C194.718 154.452 194.603 154.317 194.541 154.092C194.482 153.854 194.586 153.454 194.852 152.891C195.821 150.835 196.638 149.083 197.301 147.634C197.965 146.185 198.489 144.94 198.874 143.898C199.013 143.494 199.068 143.17 199.038 142.927C199.025 142.674 198.772 142.438 198.28 142.219C198.094 142.14 197.978 142.059 197.931 141.977C197.901 141.886 197.899 141.795 197.924 141.705C197.948 141.615 198.024 141.567 198.15 141.561C198.277 141.554 198.417 141.572 198.571 141.615C198.828 141.686 199.125 141.788 199.461 141.923C199.81 142.061 200.184 142.185 200.583 142.295C200.814 142.359 201.045 142.423 201.276 142.487C201.511 142.538 201.732 142.592 201.937 142.649C202.143 142.706 202.316 142.754 202.458 142.793C202.612 142.836 202.722 142.887 202.789 142.947C202.859 142.994 202.883 143.056 202.862 143.133C202.837 143.223 202.745 143.28 202.586 143.306C202.439 143.334 202.273 143.337 202.086 143.313C201.699 143.261 201.373 143.288 201.108 143.395C200.857 143.505 200.625 143.794 200.413 144.261L196.936 151.807C196.837 152.015 196.782 152.166 196.77 152.259C196.77 152.357 196.796 152.412 196.848 152.426C196.899 152.441 196.98 152.401 197.089 152.306C197.198 152.212 197.364 152.085 197.588 151.926L204.83 146.748C205.449 146.31 205.87 145.936 206.095 145.624C206.336 145.304 206.442 145.043 206.415 144.841C206.388 144.64 206.287 144.502 206.115 144.426C205.916 144.344 205.8 144.263 205.766 144.185C205.736 144.094 205.734 144.003 205.759 143.913C205.78 143.836 205.852 143.8 205.975 143.807C206.101 143.8 206.241 143.818 206.396 143.861C206.563 143.907 206.811 143.983 207.142 144.088C207.485 144.197 207.818 144.295 208.139 144.384C208.537 144.494 208.858 144.562 209.1 144.588C209.354 144.617 209.63 144.672 209.925 144.754C210.079 144.796 210.182 144.852 210.232 144.921C210.298 144.981 210.321 145.05 210.299 145.127C210.274 145.217 210.187 145.283 210.037 145.324C209.891 145.353 209.7 145.369 209.463 145.373C209.104 145.371 208.696 145.424 208.237 145.532C207.778 145.64 207.298 145.874 206.798 146.234L197.258 152.893C196.985 153.08 196.725 153.271 196.478 153.465C196.23 153.66 195.995 153.837 195.771 153.996C195.56 154.159 195.378 154.289 195.227 154.385C195.076 154.482 194.962 154.52 194.885 154.498ZM209.694 158.592C208.691 158.315 207.931 157.863 207.413 157.235C206.911 156.599 206.609 155.865 206.507 155.034C206.408 154.191 206.481 153.326 206.726 152.439C206.982 151.514 207.402 150.62 207.986 149.758C208.583 148.899 209.313 148.16 210.176 147.541C211.042 146.909 212.006 146.477 213.066 146.244C214.139 146.015 215.28 146.068 216.488 146.402C217.49 146.679 218.249 147.138 218.763 147.778C219.282 148.405 219.584 149.139 219.67 149.979C219.772 150.81 219.701 151.668 219.455 152.555C219.2 153.48 218.773 154.372 218.176 155.231C217.592 156.093 216.867 156.84 216 157.472C215.138 158.091 214.17 158.515 213.096 158.744C212.036 158.977 210.902 158.926 209.694 158.592ZM209.917 158.011C210.611 158.203 211.298 158.22 211.978 158.062C212.674 157.895 213.337 157.6 213.965 157.179C214.609 156.749 215.197 156.226 215.726 155.612C216.259 154.985 216.722 154.31 217.115 153.589C217.512 152.855 217.813 152.115 218.019 151.37C218.186 150.766 218.252 150.154 218.215 149.536C218.192 148.92 218.024 148.376 217.712 147.902C217.413 147.432 216.936 147.107 216.281 146.926C215.613 146.741 214.937 146.734 214.253 146.905C213.57 147.075 212.912 147.378 212.28 147.812C211.648 148.246 211.053 148.773 210.494 149.393C209.952 150.004 209.476 150.675 209.066 151.405C208.67 152.139 208.368 152.879 208.162 153.625C207.995 154.229 207.925 154.832 207.952 155.434C207.992 156.04 208.162 156.578 208.461 157.048C208.776 157.509 209.262 157.83 209.917 158.011ZM223.599 162.437C223.072 162.291 222.556 162.031 222.051 161.656C221.55 161.268 221.113 160.795 220.742 160.236C220.375 159.664 220.12 159.033 219.979 158.344C219.85 157.658 219.889 156.943 220.095 156.197C220.415 155.041 220.917 154.024 221.602 153.149C222.299 152.276 223.117 151.569 224.056 151.026C224.995 150.483 225.99 150.136 227.042 149.984C228.11 149.822 229.165 149.886 230.205 150.174C230.565 150.273 230.91 150.403 231.239 150.563C231.585 150.714 231.92 150.903 232.244 151.131C232.467 151.276 232.659 151.405 232.821 151.519C232.984 151.633 233.129 151.708 233.257 151.744C233.322 151.761 233.39 151.766 233.461 151.758C233.536 151.738 233.617 151.718 233.705 151.701C233.789 151.697 233.873 151.692 233.958 151.688C234.045 151.671 234.121 151.671 234.186 151.689C234.301 151.721 234.348 151.775 234.327 151.853C234.319 151.933 234.288 151.994 234.235 152.035C234.041 152.188 233.809 152.401 233.54 152.672C233.271 152.944 233.012 153.232 232.762 153.536C232.525 153.844 232.333 154.137 232.187 154.415C232.149 154.501 232.079 154.579 231.977 154.647C231.879 154.703 231.798 154.722 231.733 154.704C231.618 154.673 231.548 154.598 231.525 154.481C231.519 154.355 231.538 154.235 231.583 154.123C231.729 153.846 231.83 153.555 231.886 153.253C231.958 152.941 231.924 152.613 231.784 152.27C231.644 151.927 231.417 151.622 231.103 151.355C230.806 151.08 230.432 150.879 229.982 150.755C229.43 150.602 228.829 150.575 228.18 150.672C227.53 150.769 226.876 150.982 226.218 151.312C225.576 151.633 224.954 152.056 224.352 152.581C223.764 153.11 223.239 153.732 222.778 154.449C222.333 155.156 221.99 155.947 221.749 156.82C221.532 157.604 221.46 158.29 221.533 158.877C221.618 159.468 221.797 159.974 222.068 160.395C222.352 160.819 222.686 161.16 223.071 161.419C223.469 161.681 223.873 161.869 224.285 161.983C224.94 162.164 225.502 162.209 225.97 162.117C226.442 162.012 226.867 161.825 227.245 161.556C227.628 161.275 228.008 160.951 228.385 160.585C228.478 160.5 228.565 160.434 228.647 160.388C228.733 160.328 228.827 160.313 228.93 160.341C228.994 160.359 229.024 160.402 229.019 160.47C229.014 160.537 228.994 160.636 228.958 160.764C228.934 160.854 228.821 161.037 228.62 161.314C228.422 161.577 228.192 161.86 227.929 162.16C227.666 162.461 227.422 162.719 227.197 162.933C226.988 163.138 226.851 163.232 226.787 163.214C226.736 163.2 226.685 163.158 226.635 163.089C226.581 163.033 226.529 162.97 226.479 162.901C226.442 162.835 226.389 162.779 226.319 162.732C226.265 162.676 226.2 162.637 226.123 162.615C226.033 162.591 225.918 162.58 225.779 162.583C225.64 162.586 225.471 162.594 225.274 162.609C225.063 162.62 224.816 162.614 224.532 162.591C224.244 162.58 223.933 162.529 223.599 162.437ZM228.753 163.675C228.598 163.632 228.495 163.582 228.441 163.526C228.387 163.47 228.36 163.393 228.359 163.296C228.375 163.19 228.454 163.129 228.597 163.113C228.73 163.08 228.907 163.067 229.127 163.072C229.515 163.069 229.876 163.038 230.211 162.978C230.558 162.922 230.887 162.833 231.198 162.711C231.512 162.577 231.803 162.422 232.073 162.248C233.315 161.457 234.463 160.681 235.517 159.921C236.584 159.165 237.617 158.406 238.616 157.645C239.615 156.883 240.637 156.115 241.681 155.338C241.889 155.188 242.072 155.052 242.23 154.93C242.388 154.807 242.519 154.712 242.621 154.643C242.722 154.575 242.799 154.547 242.851 154.562C243.12 154.636 243.313 154.641 243.428 154.576C243.555 154.514 243.719 154.421 243.92 154.297C244.157 154.141 244.316 154.04 244.398 153.993C244.496 153.938 244.578 153.919 244.642 153.936C244.706 153.954 244.741 154.005 244.745 154.089C244.749 154.174 244.69 154.337 244.568 154.58L239.781 164.088C239.482 164.67 239.347 165.109 239.375 165.408C239.419 165.697 239.607 165.942 239.939 166.145C240.13 166.253 240.27 166.347 240.359 166.427C240.451 166.494 240.485 166.572 240.46 166.662C240.439 166.739 240.378 166.785 240.277 166.798C240.176 166.812 240.017 166.789 239.798 166.728C239.631 166.682 239.416 166.609 239.154 166.508C238.9 166.425 238.629 166.329 238.341 166.221C238.049 166.127 237.768 166.042 237.498 165.968C237.266 165.904 237.029 165.838 236.785 165.771C236.553 165.707 236.327 165.651 236.104 165.603C235.899 165.546 235.725 165.498 235.584 165.459C235.314 165.385 235.181 165.265 235.185 165.1C235.197 165.007 235.264 164.942 235.384 164.906C235.508 164.857 235.657 164.843 235.832 164.864C236.277 164.904 236.628 164.911 236.884 164.885C237.157 164.85 237.384 164.753 237.566 164.596C237.764 164.43 237.958 164.179 238.147 163.844L239.379 161.715C239.484 161.537 239.482 161.391 239.375 161.278C239.281 161.169 239.144 161.09 238.964 161.04L236.794 160.482C236.588 160.425 236.414 160.405 236.272 160.42C236.145 160.427 236.011 160.487 235.869 160.6L233.159 162.672C232.842 162.917 232.646 163.126 232.571 163.298C232.512 163.462 232.521 163.603 232.599 163.721C232.694 163.83 232.804 163.93 232.932 164.021C233.059 164.111 233.158 164.201 233.231 164.29C233.303 164.379 233.325 164.475 233.296 164.578C233.271 164.668 233.202 164.718 233.089 164.728C232.975 164.738 232.841 164.722 232.687 164.679C232.52 164.633 232.31 164.568 232.056 164.484C231.816 164.404 231.528 164.317 231.194 164.225C230.796 164.115 230.36 164.015 229.887 163.926C229.426 163.84 229.048 163.756 228.753 163.675ZM237.457 159.96L239.525 160.511C239.667 160.55 239.786 160.541 239.885 160.486C239.983 160.43 240.087 160.306 240.195 160.115L242.287 156.149C242.368 156.005 242.412 155.9 242.416 155.832C242.438 155.755 242.416 155.707 242.352 155.69C242.301 155.675 242.239 155.672 242.168 155.68C242.097 155.688 242.014 155.735 241.922 155.82L237.227 159.44C237.102 159.543 237.022 159.632 236.988 159.705C236.954 159.779 237.11 159.864 237.457 159.96ZM248.235 169.102C248.119 169.07 247.853 168.983 247.436 168.84C247.032 168.7 246.57 168.545 246.05 168.374C245.527 168.215 245.027 168.07 244.552 167.939C244.32 167.875 244.107 167.822 243.91 167.782C243.727 167.745 243.53 167.705 243.321 167.661C243.109 167.63 242.842 167.57 242.52 167.481C242.366 167.438 242.256 167.387 242.189 167.327C242.119 167.28 242.095 167.218 242.116 167.141C242.173 166.935 242.436 166.883 242.906 166.986C243.321 167.086 243.645 167.114 243.879 167.068C244.13 167.013 244.341 166.898 244.514 166.725C244.69 166.538 244.872 166.305 245.06 166.025L250.408 157.938C250.596 157.658 250.62 157.422 250.479 157.231C250.355 157.031 250.154 156.857 249.876 156.711C249.602 156.553 249.33 156.408 249.062 156.279C248.88 156.187 248.765 156.1 248.719 156.018C248.685 155.94 248.681 155.855 248.706 155.765C248.727 155.688 248.799 155.653 248.922 155.659C249.048 155.653 249.188 155.671 249.343 155.713C249.857 155.855 250.322 155.998 250.739 156.141C251.156 156.284 251.564 156.41 251.962 156.52C252.219 156.591 252.439 156.645 252.623 156.682C252.823 156.71 253.021 156.744 253.217 156.784C253.43 156.816 253.684 156.872 253.98 156.954C255.188 157.288 256.185 157.785 256.971 158.445C257.76 159.092 258.295 159.883 258.576 160.818C258.873 161.744 258.859 162.798 258.532 163.981C258.262 164.957 257.805 165.834 257.161 166.611C256.518 167.387 255.734 168.021 254.81 168.513C253.885 169.004 252.86 169.309 251.735 169.426C250.622 169.548 249.456 169.44 248.235 169.102ZM248.491 168.55C249.455 168.817 250.384 168.859 251.278 168.678C252.185 168.5 253.022 168.15 253.788 167.629C254.558 167.095 255.215 166.446 255.758 165.683C256.317 164.911 256.721 164.075 256.97 163.175C257.243 162.186 257.302 161.324 257.146 160.589C256.989 159.854 256.64 159.239 256.099 158.743C255.571 158.251 254.87 157.885 253.997 157.643C253.457 157.494 253.061 157.426 252.808 157.439C252.559 157.439 252.374 157.506 252.255 157.639C252.151 157.762 252.031 157.923 251.893 158.12L246.98 165.684C246.644 166.2 246.494 166.643 246.53 167.012C246.566 167.382 246.751 167.689 247.085 167.933C247.431 168.181 247.9 168.387 248.491 168.55ZM262.423 173.17C261.421 172.893 260.66 172.44 260.142 171.813C259.64 171.176 259.338 170.443 259.236 169.612C259.137 168.768 259.21 167.903 259.455 167.017C259.711 166.091 260.131 165.198 260.715 164.335C261.312 163.477 262.042 162.738 262.905 162.119C263.772 161.487 264.735 161.054 265.795 160.822C266.868 160.593 268.009 160.645 269.217 160.979C270.219 161.257 270.978 161.715 271.492 162.356C272.011 162.983 272.313 163.717 272.399 164.557C272.501 165.387 272.43 166.246 272.185 167.133C271.929 168.058 271.502 168.95 270.905 169.809C270.321 170.671 269.596 171.418 268.729 172.05C267.867 172.669 266.899 173.093 265.825 173.322C264.765 173.554 263.631 173.504 262.423 173.17ZM262.646 172.588C263.34 172.78 264.027 172.797 264.707 172.639C265.403 172.472 266.066 172.178 266.694 171.757C267.339 171.326 267.926 170.804 268.455 170.189C268.988 169.562 269.451 168.888 269.844 168.166C270.241 167.432 270.542 166.692 270.749 165.947C270.916 165.343 270.981 164.732 270.944 164.113C270.921 163.498 270.753 162.953 270.441 162.48C270.142 162.01 269.665 161.684 269.01 161.503C268.342 161.318 267.666 161.311 266.982 161.482C266.299 161.653 265.641 161.955 265.009 162.389C264.377 162.823 263.782 163.35 263.223 163.97C262.681 164.581 262.205 165.252 261.795 165.983C261.399 166.717 261.097 167.457 260.891 168.202C260.724 168.806 260.654 169.409 260.682 170.012C260.722 170.617 260.891 171.155 261.19 171.625C261.505 172.086 261.991 172.407 262.646 172.588Z" fill="black"/>
<path d="M309 59.9993L311.47 65.8726L319.462 65.8726L312.996 69.5026L315.466 75.3759L309 71.746L302.534 75.3759L305.004 69.5026L298.538 65.8726L306.53 65.8726L309 59.9993Z" fill="white"/>
<path d="M286 251.999L288.47 257.872L296.462 257.872L289.996 261.502L292.466 267.376L286 263.746L279.534 267.376L282.004 261.502L275.538 257.872L283.53 257.872L286 251.999Z" fill="white"/>
<path d="M285 118L287.47 123.873L295.462 123.873L288.996 127.503L291.466 133.376L285 129.746L278.534 133.376L281.004 127.503L274.538 123.873L282.53 123.873L285 118Z" fill="white"/>
<path d="M268 170L270.47 175.873L278.462 175.873L271.996 179.503L274.466 185.377L268 181.747L261.534 185.377L264.004 179.503L257.538 175.873L265.53 175.873L268 170Z" fill="white"/>
<path d="M84 230.999L86.4697 236.872L94.4616 236.872L87.996 240.502L90.4656 246.376L84 242.746L77.5344 246.376L80.004 240.502L73.5384 236.872L81.5303 236.872L84 230.999Z" fill="white"/>
<path d="M73.7161 162L76.1857 167.873L84.1777 167.873L77.712 171.503L80.1817 177.376L73.7161 173.746L67.2504 177.376L69.7201 171.503L63.2544 167.873L71.2464 167.873L73.7161 162Z" fill="white"/>
<path d="M320 102L322.47 107.873L330.462 107.873L323.996 111.503L326.466 117.377L320 113.747L313.534 117.377L316.004 111.503L309.538 107.873L317.53 107.873L320 102Z" fill="white"/>
<path d="M105 47L107.47 52.8734L115.462 52.8734L108.996 56.5033L111.466 62.3766L105 58.7467L98.5344 62.3766L101.004 56.5033L94.5384 52.8734L102.53 52.8734L105 47Z" fill="white"/>
<path d="M138.864 160L141.334 165.873L149.326 165.873L142.86 169.503L145.33 175.377L138.864 171.747L132.398 175.377L134.868 169.503L128.402 165.873L136.394 165.873L138.864 160Z" fill="white"/>
<path d="M150.864 57L153.334 62.8734L161.326 62.8734L154.86 66.5033L157.33 72.3766L150.864 68.7467L144.398 72.3766L146.868 66.5033L140.402 62.8734L148.394 62.8734L150.864 57Z" fill="white"/>
<path d="M304 140L306.47 145.873L314.462 145.873L307.996 149.503L310.466 155.377L304 151.747L297.534 155.377L300.004 149.503L293.538 145.873L301.53 145.873L304 140Z" fill="white"/>
<path d="M82 85L84.4697 90.8734L92.4616 90.8734L85.996 94.5033L88.4656 100.377L82 96.7467L75.5344 100.377L78.004 94.5033L71.5384 90.8734L79.5303 90.8734L82 85Z" fill="white"/>
<path d="M232.864 8L235.334 13.8734L243.326 13.8734L236.86 17.5033L239.33 23.3766L232.864 19.7467L226.398 23.3766L228.868 17.5033L222.402 13.8734L230.394 13.8734L232.864 8Z" fill="white"/>
<path d="M291.864 36L294.334 41.8734L302.326 41.8734L295.86 45.5033L298.33 51.3766L291.864 47.7467L285.398 51.3766L287.868 45.5033L281.402 41.8734L289.394 41.8734L291.864 36Z" fill="white"/>
<path d="M214.864 241L217.334 246.873L225.326 246.873L218.86 250.503L221.33 256.377L214.864 252.747L208.398 256.377L210.868 250.503L204.402 246.873L212.394 246.873L214.864 241Z" fill="white"/>
</svg>
